<svg xmlns="http://www.w3.org/2000/svg" width="36.532" height="22.231" viewBox="0 0 36.532 22.231"><path data-name="Trazado 3479" d="M31.131 16.352v-.224h4.109a.67.67 0 0 0 .668-.716s-.414-5.9-.537-7.616a6.741 6.741 0 0 0-7.389-6.412c-5.074.271-7.028 4.077-7.069 6.413-.035 2.03-.459 7.555-.463 7.611a.669.669 0 0 0 .668.721h3.842v.268a8.733 8.733 0 0 0-4.4 1.875c-1.557-2.1-5.671-3.261-6.851-3.555v-1c1.814-1.663 2.372-4.8 2.372-6.72 0-.061 0-.12-.006-.177a.668.668 0 0 0 .321-.519 6.828 6.828 0 0 0-1.509-4.714A5.292 5.292 0 0 0 10.825.004 5.218 5.218 0 0 0 6.779 1.59 6.755 6.755 0 0 0 5.34 6.304a.666.666 0 0 0 .206.422c-.02.431-.009.891 0 1.361.006.226.011.456.014.687a7.661 7.661 0 0 0 1.07 3.609 5.689 5.689 0 0 0 .91 1.15v1.229c-1.9.435-7.543 2-7.543 5.193v2.257H1.34v-2.253c0-1.9 4.081-3.292 6.27-3.831a3.041 3.041 0 0 0 3.1 1.847 2.83 2.83 0 0 0 2.939-1.891 22.32 22.32 0 0 1 2.99 1.042c2.059.9 3.192 1.911 3.192 2.833v2.272h1.339v-2.256c0-1.219 2.5-2 4.075-2.269a3.148 3.148 0 0 0 2.882 1.413 2.923 2.923 0 0 0 2.754-1.451c1.546.23 4.312 1.025 4.312 2.307v2.257h1.339v-2.257c0-2.594-4.124-3.428-5.401-3.623zM10.825 1.339a4.016 4.016 0 0 1 3.079 1.149 4.905 4.905 0 0 1 1.136 2.835 2.838 2.838 0 0 0-.933-.139 5.677 5.677 0 0 0-.92.095 12.445 12.445 0 0 1-1.708.168 5.163 5.163 0 0 1-2.072-.606 5.1 5.1 0 0 0-1.95-.583 1.985 1.985 0 0 0-.617.094 4.2 4.2 0 0 1 .932-1.864 3.942 3.942 0 0 1 3.053-1.149zM6.903 8.764c0-.237-.008-.473-.014-.706-.023-.916-.049-2.054.251-2.368.025-.025.091-.094.313-.094a4.389 4.389 0 0 1 1.41.469 6.218 6.218 0 0 0 2.656.719 13.781 13.781 0 0 0 1.873-.183 4.582 4.582 0 0 1 .711-.078c.621 0 .642.047.642.471a11.907 11.907 0 0 1-.683 3.752c-.69 1.823-1.789 2.747-3.267 2.747-3.155.001-3.882-3.789-3.892-4.729zm3.806 7.871c-1.326 0-1.731-.7-1.826-.921v-1.27a4.717 4.717 0 0 0 1.914.389 4.374 4.374 0 0 0 1.579-.283v1.114c-.06.24-.349.972-1.667.972zm13.754-6.731c-.007-.3-.022-.6-.035-.874a3.963 3.963 0 0 1 .116-1.78.563.563 0 0 1 .328-.075 4.389 4.389 0 0 1 1.41.469 6.2 6.2 0 0 0 2.656.719 13.776 13.776 0 0 0 1.873-.183 4.588 4.588 0 0 1 .712-.078 1.167 1.167 0 0 1 .43.04.808.808 0 0 1 .068.431c0 .621-.107 6.07-3.807 6.07-3.539-.005-3.75-4.696-3.751-4.739zm-2.623 4.885c.117-1.583.384-5.325.412-6.97.023-1.333 1.11-4.848 5.8-5.1a5.385 5.385 0 0 1 5.988 5.172c.1 1.349.372 5.274.486 6.9h-3.264c1.505-1.44 2.1-3.956 2.1-6.221a1.6 1.6 0 0 0-1.838-1.81 5.685 5.685 0 0 0-.92.095 12.438 12.438 0 0 1-1.708.168 5.165 5.165 0 0 1-2.072-.606 5.1 5.1 0 0 0-1.951-.583 1.715 1.715 0 0 0-1.3.491c-.589.619-.54 1.615-.483 2.769.013.267.027.549.034.841a8.062 8.062 0 0 0 1 3.585 5.505 5.505 0 0 0 .839 1.12v.152zm6.285 2.991c-1.326 0-1.731-.7-1.826-.921v-1.278a4.817 4.817 0 0 0 3.492.13v1.1c-.043.187-.309.969-1.665.969z" fill="#474747"/></svg>