<svg xmlns="http://www.w3.org/2000/svg" width="25" height="25.876" viewBox="0 0 25 25.876"><path data-name="Trazado 3480" d="M22.36 7.087a5.686 5.686 0 0 1-1.659-.81 7.053 7.053 0 0 1-.919-1.777.341.341 0 0 0-.316-.214.329.329 0 0 0-.306.227 5.045 5.045 0 0 1-.894 1.659 3.169 3.169 0 0 1-.753.514 5.019 5.019 0 0 0-1.51-3.424c-.1-.1-.2-.2-.3-.314A3.418 3.418 0 0 0 14.161.865a6.161 6.161 0 0 0-3.292-.867A9.938 9.938 0 0 0 3.595 2.94 14.182 14.182 0 0 0 .002 13.015c.113 6.1 3.551 11.655 3.7 11.888l.837-.525C4.505 24.323 1.1 18.829.992 12.996a13.182 13.182 0 0 1 3.31-9.364A8.855 8.855 0 0 1 10.871.986c1.468 0 3.952.6 3.952 2.854a3.608 3.608 0 0 1-3.289 3.274l-.155.021h-.4v.056-.056a11.823 11.823 0 0 0-4.045.552c-.052.019-.1.041-.152.062a2.834 2.834 0 0 0-.621.285v.006a4.039 4.039 0 0 0-2.156 3.76 7.116 7.116 0 0 0 .058.861 1 1 0 0 0-.568.219.984.984 0 0 0-.313.861c.05.842 1.152 1.644 1.738 2.013a13.715 13.715 0 0 0 .962 1.89 9.349 9.349 0 0 0 1.964 2.344v2.79a1.735 1.735 0 0 1-1.5 1.761l.14.978a2.717 2.717 0 0 0 2.345-2.739V20.64a3.742 3.742 0 0 0 1.7.435 4.31 4.31 0 0 0 2-.524v2.225a2.717 2.717 0 0 0 2.345 2.739l.143-.978a1.736 1.736 0 0 1-1.5-1.762v-2.8h-.105a8.171 8.171 0 0 0 1.762-1.951 11.378 11.378 0 0 0 1.157-2.3 7.17 7.17 0 0 0 .676-.486c.075 9.066 4.054 10.573 4.225 10.633l.328-.932c-.036-.013-3.567-1.355-3.567-9.962a4.385 4.385 0 0 0-.064-.834 1.216 1.216 0 0 0 .1-.409 1.069 1.069 0 0 0-.176-.711c-.028-2.044-.09-3.608-.188-4.825a2.834 2.834 0 0 1 .588.423 5.117 5.117 0 0 1 .892 1.74.33.33 0 0 0 .311.234.33.33 0 0 0 .313-.225 7.04 7.04 0 0 1 .858-1.852 6.246 6.246 0 0 1 1.717-.81.329.329 0 0 0 .226-.313.329.329 0 0 0-.212-.308zM3.844 13.701a.409.409 0 0 1 .079-.318.41.41 0 0 1 .248-.069 11.828 11.828 0 0 0 .34 1.318 1.708 1.708 0 0 1-.667-.931zm10.517 3.781c-1.092 1.655-2.485 2.6-3.82 2.6-2.8 0-5.543-5.244-5.543-8.287a3.1 3.1 0 0 1 2.1-3.112 11.7 11.7 0 0 1 2.355-.348c.6-.053 1.281-.115 1.99-.214a7.365 7.365 0 0 1 2.777.477 3.128 3.128 0 0 1 1.868 3.2 10.741 10.741 0 0 1-1.728 5.685zm2.323-2.82q.122-.458.207-.923l.161-.425a.42.42 0 0 1 .253.068.407.407 0 0 1 .08.319 1.766 1.766 0 0 1-.702.961zm.114-4.648a3.819 3.819 0 0 0-2.185-2.316 5.767 5.767 0 0 0-.956-.318 4.361 4.361 0 0 0 2.1-2.916 5.31 5.31 0 0 1 .816 2.632.328.328 0 0 0-.21.3.329.329 0 0 0 .224.312l.058.02c.06.633.112 1.384.152 2.286zm3.381-1.957a4.52 4.52 0 0 0-.708 1.28 4.072 4.072 0 0 0-.738-1.175 4.254 4.254 0 0 0-1.127-.738V7.38a4.269 4.269 0 0 0 1.132-.74 4.218 4.218 0 0 0 .747-1.155 4.838 4.838 0 0 0 .756 1.259 3.857 3.857 0 0 0 1.1.655 4.058 4.058 0 0 0-1.163.658zm4.708-3.024a2.246 2.246 0 0 1-.66-.321 2.792 2.792 0 0 1-.365-.709.158.158 0 0 0-.158-.107.165.165 0 0 0-.153.114 2.012 2.012 0 0 1-.354.66 2.113 2.113 0 0 1-.67.363.164.164 0 0 0-.112.156.165.165 0 0 0 .112.156 2.092 2.092 0 0 1 .67.363 2.045 2.045 0 0 1 .354.692.165.165 0 0 0 .155.117.165.165 0 0 0 .156-.112 2.864 2.864 0 0 1 .34-.739 2.535 2.535 0 0 1 .684-.321.165.165 0 0 0 .113-.157.165.165 0 0 0-.113-.154zm-.916.4a1.648 1.648 0 0 0-.266.463 1.567 1.567 0 0 0-.275-.421 1.689 1.689 0 0 0-.427-.287 1.687 1.687 0 0 0 .427-.286 1.628 1.628 0 0 0 .28-.417 1.811 1.811 0 0 0 .285.459 1.432 1.432 0 0 0 .389.243 1.485 1.485 0 0 0-.414.248zm-7.6-3.466a2.5 2.5 0 0 1 .8.436 2.44 2.44 0 0 1 .425.829.165.165 0 0 0 .155.117.165.165 0 0 0 .156-.113 3.367 3.367 0 0 1 .408-.883 2.982 2.982 0 0 1 .818-.386.165.165 0 0 0 .113-.157.165.165 0 0 0-.111-.154 2.662 2.662 0 0 1-.791-.386 3.3 3.3 0 0 1-.438-.847.155.155 0 0 0-.158-.107.165.165 0 0 0-.153.114 2.4 2.4 0 0 1-.426.79 2.6 2.6 0 0 1-.8.436.165.165 0 0 0-.112.156.165.165 0 0 0 .115.156zm1.035-.515a2 2 0 0 0 .352-.54 2.279 2.279 0 0 0 .357.59 1.813 1.813 0 0 0 .511.308 1.9 1.9 0 0 0-.538.31 2.1 2.1 0 0 0-.334.6 1.928 1.928 0 0 0-.347-.548 2.062 2.062 0 0 0-.551-.359 2.072 2.072 0 0 0 .551-.36z" fill="#474747"/></svg>