<svg xmlns="http://www.w3.org/2000/svg" width="27.257" height="27.203" viewBox="0 0 27.257 27.203"><path data-name="Trazado 8" d="M14.51 23.563a11.151 11.151 0 0 0 6.192-2.922 11.027 11.027 0 0 0 2.906-6.161l.04-.242h2.977a.63.63 0 0 0 .632-.635.638.638 0 0 0-.639-.632 34.386 34.386 0 0 0-1.158 0h-1.873l-.026-.261a10.04 10.04 0 0 0-2.931-6.139 9.932 9.932 0 0 0-6.1-2.836l-.265-.023V.68a.639.639 0 0 0-.628-.673.62.62 0 0 0-.446.173.7.7 0 0 0-.2.5v2.974l-.241.041a11.116 11.116 0 0 0-6.144 2.91 11.041 11.041 0 0 0-2.91 6.126l-.041.241H.693a.631.631 0 0 0-.607.333.606.606 0 0 0 0 .613.666.666 0 0 0 .58.325c.644.007 1.3.005 1.941 0h1.119l.025.262a10.113 10.113 0 0 0 2.938 6.2 9.785 9.785 0 0 0 6.042 2.825l.266.022v2.953a.746.746 0 0 0 .2.536.6.6 0 0 0 .432.171h.008a.645.645 0 0 0 .63-.7v-2.9zm7.635-9.018a8.528 8.528 0 0 1-7.536 7.61l-.322.036v-3.326l.234-.046a5.325 5.325 0 0 0 2.618-1.274 5.174 5.174 0 0 0 1.634-2.818.547.547 0 0 1 .6-.494c.6.01 1.214.009 1.807.007h.984zm-7.861-9.483l.314.027a8.32 8.32 0 0 1 5.09 2.4 8.371 8.371 0 0 1 2.5 5.143l.03.317H18.93l-.052-.224A5.349 5.349 0 0 0 14.51 8.39l-.226-.051zm-9.171 7.594a8.546 8.546 0 0 1 7.549-7.609l.321-.035v3.212l-.184.072c-.189.074-.378.141-.562.207a8.018 8.018 0 0 0-1.108.456 5.123 5.123 0 0 0-2.647 3.522.542.542 0 0 1-.582.49h-.016c-.6-.01-1.214-.008-1.807-.007h-.985zm7.878 8.679v.792l-.31-.021a8.549 8.549 0 0 1-7.619-7.532l-.035-.321h3.206l.073.181c.079.2.153.392.223.582a8.532 8.532 0 0 0 .494 1.155 5.181 5.181 0 0 0 3.515 2.585c.122.029.439.161.443.429.012.717.011 1.445.01 2.15zm.652-3.74a4 4 0 0 1-4.012-3.974 4.013 4.013 0 0 1 4-4.014h.01a3.953 3.953 0 0 1 2.812 1.168 3.99 3.99 0 0 1 1.177 2.85 3.941 3.941 0 0 1-1.179 2.8 3.963 3.963 0 0 1-2.808 1.17z" fill="#fff"/></svg>