<svg xmlns="http://www.w3.org/2000/svg" width="25.672" height="25.657" viewBox="0 0 25.672 25.657"><path data-name="Trazado 3481" d="M17.811 1.025A12.449 12.449 0 0 0 12.829 0a12.818 12.818 0 0 0-4.981 24.634 12.813 12.813 0 1 0 9.963-23.609zm-15.5 6.479a11.957 11.957 0 0 1 6.057-5.587l.957-.4-.642.812a13.74 13.74 0 0 0-2.444 5.357l-.05.207H2.11zm-.69 8.977a11.959 11.959 0 0 1-.571-3.666 11.683 11.683 0 0 1 .6-3.7l.062-.185h4.264l-.047.311a23.678 23.678 0 0 0 0 7.113l.047.311H1.683zm6.746 7.261a11.765 11.765 0 0 1-6.058-5.648l-.192-.389H6.19l.049.208a13.618 13.618 0 0 0 2.442 5.411l.657.823zm3.932.829l-.346-.1a5.274 5.274 0 0 1-2.74-2.18 12.744 12.744 0 0 1-1.847-4.246l-.085-.336h5.018zm0-7.9H7.035l-.034-.231a24.958 24.958 0 0 1-.291-3.622 20.848 20.848 0 0 1 .321-3.659l.04-.223h5.228zm0-8.771H7.274l.092-.341a13.242 13.242 0 0 1 1.874-4.2 5.12 5.12 0 0 1 2.715-2.168l.342-.095zm5-5.984a11.957 11.957 0 0 1 6.057 5.587l.2.394h-4.074l-.05-.207a13.746 13.746 0 0 0-2.444-5.357l-.642-.812zm-3.928-.822l.342.095a5.11 5.11 0 0 1 2.715 2.168 13.253 13.253 0 0 1 1.875 4.2l.093.341h-5.021zm0 7.839h5.228l.04.223a20.86 20.86 0 0 1 .321 3.659 25.193 25.193 0 0 1-.289 3.622l-.034.231h-5.262zm.345 15.538l-.341.092v-6.859h5.024l-.088.339a13.3 13.3 0 0 1-1.861 4.242 5.025 5.025 0 0 1-2.734 2.186zm9.646-6.375a11.766 11.766 0 0 1-6.058 5.648l-.973.405.657-.823a13.616 13.616 0 0 0 2.443-5.411l.049-.208h4.073zm.688-1.613l-.06.187h-4.291l.048-.311a23.144 23.144 0 0 0 .269-3.542 23.62 23.62 0 0 0-.269-3.57l-.048-.311h4.26l.062.185a11.68 11.68 0 0 1 .6 3.7 11.964 11.964 0 0 1-.571 3.66z" fill="#474747"/></svg>