<svg id="Grupo_1" data-name="Grupo 1" xmlns="http://www.w3.org/2000/svg" width="36.7" height="37" viewBox="0 0 36.7 37">
  <path id="Trazado_1" data-name="Trazado 1" d="M9.7,31.8l.6.3a15.672,15.672,0,0,0,8.1,2.2h0A15.981,15.981,0,0,0,29.7,7,15.911,15.911,0,0,0,2.5,18.4a16.4,16.4,0,0,0,2.4,8.4l.4.6L3.7,33.3Z" fill="#00e676"/>
  <path id="Trazado_2" data-name="Trazado 2" d="M31.4,5.4A18,18,0,0,0,18.5,0,18.266,18.266,0,0,0,.2,18.4a19.309,19.309,0,0,0,2.4,9.1L0,37l9.7-2.5a17.856,17.856,0,0,0,8.7,2.2h0A18.394,18.394,0,0,0,36.7,18.3,18.148,18.148,0,0,0,31.4,5.4ZM18.5,33.6h0a14.857,14.857,0,0,1-7.7-2.1l-.6-.3L4.4,32.7,5.9,27l-.4-.6a15.179,15.179,0,1,1,20.9,4.9A14.579,14.579,0,0,1,18.5,33.6Zm8.8-11.1L26.2,22s-1.6-.7-2.6-1.2c-.1,0-.2-.1-.3-.1a1.445,1.445,0,0,0-.7.2h0s-.1.1-1.5,1.7a.55.55,0,0,1-.5.3h-.1a.758.758,0,0,1-.4-.2l-.5-.2h0a9.721,9.721,0,0,1-2.9-1.9c-.2-.2-.5-.4-.7-.6a11.169,11.169,0,0,1-1.9-2.4l-.1-.2c-.1-.1-.1-.2-.2-.4a.749.749,0,0,1,.1-.5s.4-.5.7-.8c.2-.2.3-.5.5-.7a1.232,1.232,0,0,0,.2-1,38.931,38.931,0,0,0-1.6-3.8,1.157,1.157,0,0,0-.7-.5H11.9c-.2,0-.4.1-.6.1l-.1.1c-.2.1-.4.3-.6.4-.2.2-.3.4-.5.6A5.1,5.1,0,0,0,9,14H9a5.932,5.932,0,0,0,.5,2.3l.1.3a16.66,16.66,0,0,0,3.7,5.1l.4.4a6.034,6.034,0,0,1,.8.8,17.869,17.869,0,0,0,7.2,3.8c.3.1.7.1,1,.2h1a3.707,3.707,0,0,0,1.5-.4c.3-.2.5-.2.7-.4l.2-.2c.2-.2.4-.3.6-.5a2.651,2.651,0,0,0,.5-.6,5.732,5.732,0,0,0,.4-1.4v-.7A1.238,1.238,0,0,0,27.3,22.5Z" fill="#fff"/>
</svg>
