<svg xmlns="http://www.w3.org/2000/svg" viewBox="0 0 36.7 37"><defs><style>.cls-1{fill:#fff;}</style></defs><title>icon-whatsapp-blanco</title><g id="Capa_2" data-name="Capa 2"><g id="Grupo_1" data-name="Grupo 1"><path id="Trazado_2" data-name="Trazado 2" class="cls-1" d="M31.4,5.4A18,18,0,0,0,18.5,0,18.26,18.26,0,0,0,.2,18.23v.17a19.34,19.34,0,0,0,2.4,9.1L0,37l9.7-2.5a17.88,17.88,0,0,0,8.7,2.2h0A18.4,18.4,0,0,0,36.7,18.3,18.18,18.18,0,0,0,31.4,5.4ZM18.5,33.6h0a14.81,14.81,0,0,1-7.7-2.1l-.6-.3L4.4,32.7,5.9,27l-.4-.6a15.18,15.18,0,1,1,20.9,4.9A14.56,14.56,0,0,1,18.5,33.6Zm8.8-11.1L26.2,22s-1.6-.7-2.6-1.2c-.1,0-.2-.1-.3-.1a1.42,1.42,0,0,0-.7.2h0s-.1.1-1.5,1.7a.56.56,0,0,1-.5.3h-.1a.7.7,0,0,1-.4-.2l-.5-.2h0a9.77,9.77,0,0,1-2.9-1.9c-.2-.2-.5-.4-.7-.6a11.29,11.29,0,0,1-1.9-2.4l-.1-.2c-.1-.1-.1-.2-.2-.4a.74.74,0,0,1,.1-.5s.4-.5.7-.8.3-.5.5-.7a1.23,1.23,0,0,0,.2-1,40.73,40.73,0,0,0-1.6-3.8,1.15,1.15,0,0,0-.7-.5H11.9c-.2,0-.4.1-.6.1l-.1.1c-.2.1-.4.3-.6.4s-.3.4-.5.6A5.05,5.05,0,0,0,9,14H9a5.91,5.91,0,0,0,.5,2.3l.1.3a16.65,16.65,0,0,0,3.7,5.1l.4.4a6,6,0,0,1,.8.8,18,18,0,0,0,7.2,3.8c.3.1.7.1,1,.2h1a3.76,3.76,0,0,0,1.5-.4c.3-.2.5-.2.7-.4l.2-.2c.2-.2.4-.3.6-.5a2.62,2.62,0,0,0,.5-.6,5.74,5.74,0,0,0,.4-1.4v-.7A1.21,1.21,0,0,0,27.3,22.5Z"/></g></g></svg>